<svg width="80" height="80" viewBox="0 0 80 80" fill="none" xmlns="http://www.w3.org/2000/svg">
<path d="M36.25 49.497V58.75H30.9375C30.606 58.75 30.288 58.8817 30.0536 59.1161C29.8192 59.3505 29.6875 59.6685 29.6875 60V65C29.6875 65.3315 29.8192 65.6495 30.0536 65.8839C30.288 66.1183 30.606 66.25 30.9375 66.25H36.25V72.1875C36.25 72.519 36.3817 72.837 36.6161 73.0714C36.8505 73.3058 37.1685 73.4375 37.5 73.4375H42.5C42.8315 73.4375 43.1494 73.3058 43.3839 73.0714C43.6183 72.837 43.75 72.519 43.75 72.1875V66.25H49.0625C49.394 66.25 49.7119 66.1183 49.9464 65.8839C50.1808 65.6495 50.3125 65.3315 50.3125 65V60C50.3125 59.6685 50.1808 59.3505 49.9464 59.1161C49.7119 58.8817 49.394 58.75 49.0625 58.75H43.75V49.497C48.1308 48.7449 52.1684 46.6463 55.3012 43.4931C63.7387 35.0556 63.7387 21.328 55.3012 12.8909C51.2401 8.83844 45.7372 6.5625 40 6.5625C34.2628 6.5625 28.7599 8.83844 24.6987 12.8909C16.2612 21.3284 16.2612 35.0561 24.6987 43.4931C27.8316 46.6463 31.8692 48.7449 36.25 49.497ZM26.4667 14.6586C30.0566 11.0721 34.9238 9.05812 39.9982 9.05934C45.0727 9.06057 49.9389 11.0769 53.527 14.6651C57.1152 18.2533 59.1315 23.1196 59.1327 28.194C59.1338 33.2684 57.1198 38.1356 53.5333 41.7255C50.5258 44.7515 46.5843 46.6728 42.3479 47.1778C42.045 47.2149 41.7661 47.3616 41.5639 47.5902C41.3616 47.8187 41.25 48.1134 41.25 48.4186V60C41.25 60.3315 41.3817 60.6495 41.6161 60.8839C41.8505 61.1183 42.1685 61.25 42.5 61.25H47.8125V63.75H42.5C42.1685 63.75 41.8505 63.8817 41.6161 64.1161C41.3817 64.3505 41.25 64.6685 41.25 65V70.9375H38.75V65C38.75 64.6685 38.6183 64.3505 38.3839 64.1161C38.1494 63.8817 37.8315 63.75 37.5 63.75H32.1875V61.25H37.5C37.8315 61.25 38.1494 61.1183 38.3839 60.8839C38.6183 60.6495 38.75 60.3315 38.75 60V48.4186C38.75 48.1134 38.6383 47.8187 38.4361 47.5902C38.2338 47.3616 37.9549 47.2149 37.652 47.1778C33.4157 46.6728 29.4742 44.7514 26.4667 41.7255C22.8827 38.1334 20.8698 33.2663 20.8698 28.192C20.8698 23.1177 22.8827 18.2507 26.4667 14.6586Z" fill="#003366"/>
<path d="M39.9997 44.8235C43.8474 44.821 47.5751 43.4845 50.5478 41.0417C53.5205 38.5989 55.5543 35.201 56.3027 31.4268C57.051 27.6527 56.4676 23.7358 54.6519 20.3435C52.8361 16.9513 49.9004 14.2935 46.3448 12.8231C42.7893 11.3527 38.8339 11.1605 35.1525 12.2794C31.4712 13.3983 28.2916 15.759 26.1556 18.9592C24.0196 22.1595 23.0593 26.0014 23.4383 29.8303C23.8173 33.6592 25.5122 37.2383 28.2341 39.9577C29.7782 41.5037 31.6124 42.7293 33.6315 43.5644C35.6506 44.3994 37.8148 44.8273 39.9997 44.8235ZM30.0019 18.1941C31.9789 16.219 34.4971 14.8743 37.2382 14.3301C39.9793 13.7859 42.8201 14.0666 45.4017 15.1366C47.9833 16.2067 50.1897 18.0181 51.742 20.3419C53.2943 22.6657 54.1228 25.3975 54.1228 28.1921C54.1228 30.9866 53.2943 33.7185 51.742 36.0423C50.1897 38.3661 47.9833 40.1775 45.4017 41.2475C42.8201 42.3176 39.9793 42.5982 37.2382 42.054C34.4971 41.5098 31.9789 40.1652 30.0019 38.19C27.3545 35.5362 25.8677 31.9407 25.8677 28.1921C25.8677 24.4435 27.3545 20.8479 30.0019 18.1941Z" fill="#003366"/>
</svg>
