<svg width="326" height="5" viewBox="0 0 326 5" fill="none" xmlns="http://www.w3.org/2000/svg">
<path fill-rule="evenodd" clip-rule="evenodd" d="M7.49402 4.07063C14.4034 3.76542 32.5617 3.75016 81.8547 3.71964C158.827 3.67386 219.917 3.33813 236.895 2.8498C238.243 2.80402 130.347 2.46829 119.267 2.71246C101.993 3.10923 19.5012 2.7735 2.90174 2.31568C-1.81689 2.1936 -0.0473825 1.7663 3.02815 1.67474C7.83102 1.52214 20.7231 1.5374 56.0707 1.56792C80.9278 1.58318 278.689 1.23219 300.302 0.606511C312.435 0.25552 319.808 -0.0649481 323.179 0.011354C326.001 0.0723958 326.044 0.25552 323.6 0.759115C321.957 1.09485 323.811 1.29323 324.99 1.38479C326.802 1.5374 326.043 2.05625 323.768 2.46829C320.693 3.03292 315.384 3.01766 317.912 2.45303C318.46 2.33094 318.586 2.02573 316.648 2.08678C311.003 2.2699 271.105 3.52126 260.278 3.7349C144.671 6.05449 31.8455 4.36058 7.95741 4.92522C-0.510838 5.13887 3.36523 4.25376 7.49402 4.07063Z" fill="#007BFF"/>
</svg>
