<svg width="44" height="68" viewBox="0 0 44 68" fill="none" xmlns="http://www.w3.org/2000/svg">
<path d="M18.25 43.497V52.75H12.9375C12.606 52.75 12.288 52.8817 12.0536 53.1161C11.8192 53.3505 11.6875 53.6685 11.6875 54V59C11.6875 59.3315 11.8192 59.6495 12.0536 59.8839C12.288 60.1183 12.606 60.25 12.9375 60.25H18.25V66.1875C18.25 66.519 18.3817 66.837 18.6161 67.0714C18.8505 67.3058 19.1685 67.4375 19.5 67.4375H24.5C24.8315 67.4375 25.1494 67.3058 25.3839 67.0714C25.6183 66.837 25.75 66.519 25.75 66.1875V60.25H31.0625C31.394 60.25 31.7119 60.1183 31.9464 59.8839C32.1808 59.6495 32.3125 59.3315 32.3125 59V54C32.3125 53.6685 32.1808 53.3505 31.9464 53.1161C31.7119 52.8817 31.394 52.75 31.0625 52.75H25.75V43.497C30.1308 42.7449 34.1684 40.6463 37.3012 37.4931C45.7387 29.0556 45.7387 15.328 37.3012 6.89093C33.2401 2.83844 27.7372 0.5625 22 0.5625C16.2628 0.5625 10.7599 2.83844 6.69873 6.89093C-1.73877 15.3284 -1.73877 29.0561 6.69873 37.4931C9.8316 40.6463 13.8692 42.7449 18.25 43.497ZM8.4667 8.65859C12.0566 5.07214 16.9238 3.05812 21.9982 3.05934C27.0727 3.06057 31.9389 5.07694 35.527 8.66512C39.1152 12.2533 41.1315 17.1196 41.1327 22.194C41.1338 27.2684 39.1198 32.1356 35.5333 35.7255C32.5258 38.7515 28.5843 40.6728 24.3479 41.1778C24.045 41.2149 23.7661 41.3616 23.5639 41.5902C23.3616 41.8187 23.25 42.1134 23.25 42.4186V54C23.25 54.3315 23.3817 54.6495 23.6161 54.8839C23.8505 55.1183 24.1685 55.25 24.5 55.25H29.8125V57.75H24.5C24.1685 57.75 23.8505 57.8817 23.6161 58.1161C23.3817 58.3505 23.25 58.6685 23.25 59V64.9375H20.75V59C20.75 58.6685 20.6183 58.3505 20.3839 58.1161C20.1494 57.8817 19.8315 57.75 19.5 57.75H14.1875V55.25H19.5C19.8315 55.25 20.1494 55.1183 20.3839 54.8839C20.6183 54.6495 20.75 54.3315 20.75 54V42.4186C20.75 42.1134 20.6383 41.8187 20.4361 41.5902C20.2338 41.3616 19.9549 41.2149 19.652 41.1778C15.4157 40.6728 11.4742 38.7514 8.4667 35.7255C4.88265 32.1334 2.86984 27.2663 2.86984 22.192C2.86984 17.1177 4.88265 12.2507 8.4667 8.65859Z" fill="#003366"/>
</svg>
