<svg width="68" height="68" viewBox="0 0 68 68" fill="none" xmlns="http://www.w3.org/2000/svg">
<path d="M50.2003 52.5784C41.7526 60.7578 30.9789 64.5544 21.5566 63.608C29.4631 62.6022 36.8158 59.0125 42.4716 53.3969C55.104 41.1656 58.4742 21.7213 47.345 12.855C40.8963 7.71762 36.3842 10.893 26.5768 14.1274C37.7488 2.65263 47.9676 1.64762 55.6964 9.76731C66.4111 21.0239 63.639 39.5664 50.2003 52.5784Z" fill="#003366"/>
<path d="M11.5523 9.37656C18.2295 4.50622 26.292 7.71956 34.4297 19.7634C26.8399 14.8133 23.4581 11.1486 17.9937 13.866C8.56306 18.5559 9.97541 35.3296 19.2254 48.3365C23.2136 54.1592 28.743 58.7576 35.1952 61.6174C27.639 60.1946 19.3172 54.5565 13.1314 45.8583C3.29099 32.0211 2.29559 16.1285 11.5523 9.37656Z" fill="#003366"/>
<path d="M36.125 25.5V42.5H31.875V25.5H36.125Z" fill="#007BFF"/>
<path d="M42.5 31.875V36.125H25.5V31.875H42.5Z" fill="#007BFF"/>
</svg>
