<svg width="16" height="24" viewBox="0 0 16 24" fill="none" xmlns="http://www.w3.org/2000/svg">
<path fill-rule="evenodd" clip-rule="evenodd" d="M8.00076 0.258789C11.9968 0.258789 15.2369 3.49884 15.2369 7.4949C15.2369 11.4595 10.3813 17.5154 8.00076 20.436C5.62022 17.5166 0.764648 11.4595 0.764648 7.4949C0.764648 3.49884 4.0047 0.258789 8.00076 0.258789ZM12.3636 16.6345C14.3177 18.3344 14.1962 20.9569 11.9957 22.5409C9.77041 24.1429 6.23111 24.1429 4.00582 22.5409C1.80529 20.9569 1.68379 18.3344 3.63794 16.6345C3.85957 16.9495 4.08233 17.2601 4.3062 17.5638C2.98881 18.78 3.11031 20.4934 4.67071 21.6172C6.49211 22.9279 9.50941 22.9279 11.3297 21.6172C12.8901 20.4934 13.0116 18.78 11.6942 17.5638C11.9169 17.2601 12.1408 16.9495 12.3625 16.6345H12.3636ZM8.00076 3.43921C10.2407 3.43921 12.0564 5.25499 12.0564 7.4949C12.0564 9.73481 10.2407 11.5506 8.00076 11.5506C5.76085 11.5506 3.94507 9.73481 3.94507 7.4949C3.94507 5.25499 5.76085 3.43921 8.00076 3.43921Z" fill="#003366"/>
</svg>
