<svg width="24" height="20" viewBox="0 0 24 20" fill="none" xmlns="http://www.w3.org/2000/svg">
<path fill-rule="evenodd" clip-rule="evenodd" d="M8.76814 8.92064L6.49309 11.8569C7.87732 13.2236 9.55748 14.4138 11.4663 15.3674L13.9661 12.8121C14.9274 11.8296 16.349 11.4517 17.6711 11.8273L20.5247 12.6381C22.1374 13.0963 23.25 14.5694 23.25 16.246V18.6252C23.25 19.0393 22.9142 19.3752 22.5 19.3752C18.4125 19.3752 14.5811 18.4946 11.3062 16.9564C8.44537 15.6128 6.00064 13.7631 4.18474 11.551C2.02182 8.91603 0.75 5.76333 0.75 2.36354C0.75 2.04801 0.947498 1.7662 1.2441 1.65855L3.46965 0.85071C5.29249 0.189048 7.31891 1.02652 8.1432 2.78189L9.1983 5.02866C9.7971 6.30381 9.63097 7.80708 8.76814 8.92064Z" fill="#003366"/>
</svg>
